<svg width="16" height="17" viewBox="0 0 16 17" fill="none" xmlns="http://www.w3.org/2000/svg">
<g id="Flag - 1">
<path id="Vector" fill-rule="evenodd" clip-rule="evenodd" d="M11.6191 8.05667L13.2878 4.90133C13.3698 4.746 13.3644 4.55933 13.2738 4.40933C13.1838 4.25933 13.0211 4.16733 12.8458 4.16733H8.45711V3.26C8.45711 2.984 8.23311 2.76 7.95711 2.76H3.65442V2.5C3.65442 2.224 3.43042 2 3.15442 2C2.87842 2 2.65442 2.224 2.65442 2.5V14.5C2.65442 14.776 2.87842 15 3.15442 15C3.43042 15 3.65442 14.776 3.65442 14.5V10.578L7.45844 10.484V11.498C7.45844 11.6327 7.51311 11.762 7.60911 11.856C7.70511 11.95 7.81044 11.998 7.97044 11.998L12.8578 11.8787C13.0318 11.8747 13.1904 11.78 13.2778 11.6293C13.3651 11.4793 13.3684 11.294 13.2858 11.1413L11.6191 8.05667Z" fill="#2083D7"/>
</g>
</svg>
