<svg width="16" height="16" viewBox="0 0 16 16" fill="none" xmlns="http://www.w3.org/2000/svg">
<g id="Copy 2">
<path id="Vector" fill-rule="evenodd" clip-rule="evenodd" d="M2.23679 2.30337C2.71882 1.78555 3.40197 1.5 4.1964 1.5H8.04616C8.7469 1.5 9.36163 1.71993 9.82923 2.12994C10.2953 2.53859 10.5839 3.10846 10.6842 3.75541C10.7265 4.02829 10.5396 4.28381 10.2667 4.32611C9.99376 4.36841 9.7383 4.18149 9.69596 3.90861C9.6267 3.46193 9.43676 3.11579 9.16996 2.88184C8.9047 2.64926 8.53223 2.5 8.04616 2.5H4.1964C3.65062 2.5 3.24272 2.69041 2.96874 2.98473C2.6911 3.28299 2.51428 3.72815 2.51428 4.29665V7.92247C2.51428 8.4404 2.66168 8.8566 2.89771 9.15047C3.13052 9.44027 3.47213 9.6404 3.92401 9.6964C4.19806 9.7304 4.39266 9.98013 4.35868 10.2541C4.32469 10.5282 4.07498 10.7228 3.80094 10.6888C3.10482 10.6025 2.52234 10.28 2.11805 9.77667C1.71699 9.27733 1.51428 8.6296 1.51428 7.92247V4.29665C1.51428 3.52042 1.75842 2.81726 2.23679 2.30337Z" fill="#98A2B3"/>
<path id="Vector_2" fill-rule="evenodd" clip-rule="evenodd" d="M5.99596 6.08821C6.47812 5.57106 7.16126 5.2865 7.95553 5.2865H11.804C12.6001 5.2865 13.2836 5.57083 13.7655 6.08848C14.2437 6.60209 14.4861 7.30471 14.4861 8.07991V11.7058C14.4861 12.481 14.2437 13.1836 13.7654 13.6972C13.2834 14.2149 12.5998 14.4992 11.8033 14.4992H7.95553C7.1594 14.4992 6.47592 14.2148 5.99401 13.6972C5.51587 13.1836 5.27344 12.481 5.27344 11.7058V8.07991C5.27344 7.30397 5.51742 6.60147 5.99596 6.08821ZM6.7274 6.77017C6.45008 7.06757 6.27344 7.51171 6.27344 8.07991V11.7058C6.27344 12.2746 6.44937 12.7187 6.72593 13.0158C6.99873 13.3088 7.40633 13.4992 7.95553 13.4992H11.8033C12.3529 13.4992 12.7607 13.3088 13.0335 13.0158C13.3102 12.7187 13.4861 12.2746 13.4861 11.7058V8.07991C13.4861 7.51104 13.3102 7.06697 13.0336 6.76984C12.7608 6.47683 12.3532 6.2865 11.804 6.2865H7.95553C7.40893 6.2865 7.00106 6.4766 6.7274 6.77017Z" fill="#98A2B3"/>
</g>
</svg>
