<svg width="128" height="21" viewBox="0 0 128 21" fill="none" xmlns="http://www.w3.org/2000/svg">
<path d="M3.89906 0.399999V10.44L7.69906 6.74H12.6591L7.51906 11.48L12.9591 17H7.87906L3.89906 12.82V17H0.279063V0.399999H3.89906ZM16.9789 11.84C16.9789 12.1733 17.0389 12.4867 17.1589 12.78C17.2789 13.06 17.4389 13.3067 17.6389 13.52C17.8522 13.7333 18.0989 13.9 18.3789 14.02C18.6722 14.14 18.9856 14.2 19.3189 14.2C19.6389 14.2 19.9389 14.14 20.2189 14.02C20.5122 13.9 20.7589 13.7333 20.9589 13.52C21.1722 13.3067 21.3389 13.06 21.4589 12.78C21.5922 12.5 21.6589 12.2 21.6589 11.88C21.6589 11.56 21.5922 11.26 21.4589 10.98C21.3389 10.6867 21.1722 10.4333 20.9589 10.22C20.7589 10.0067 20.5122 9.84 20.2189 9.72C19.9389 9.6 19.6389 9.54 19.3189 9.54C18.9856 9.54 18.6722 9.6 18.3789 9.72C18.0989 9.84 17.8522 10.0067 17.6389 10.22C17.4389 10.4333 17.2789 10.68 17.1589 10.96C17.0389 11.2267 16.9789 11.52 16.9789 11.84ZM21.5389 6.74H25.1789V17H21.5389V15.86C20.7656 16.8333 19.7189 17.32 18.3989 17.32C17.6522 17.32 16.9656 17.1867 16.3389 16.92C15.7122 16.64 15.1656 16.2533 14.6989 15.76C14.2322 15.2667 13.8656 14.6867 13.5989 14.02C13.3456 13.3533 13.2189 12.6267 13.2189 11.84C13.2189 11.1067 13.3456 10.4133 13.5989 9.76C13.8522 9.09333 14.2056 8.51333 14.6589 8.02C15.1122 7.52667 15.6522 7.14 16.2789 6.86C16.9056 6.56667 17.5989 6.42 18.3589 6.42C19.6389 6.42 20.6989 6.86667 21.5389 7.76V6.74ZM27.6423 6.74H31.2623V8.42C31.649 7.80667 32.1223 7.34 32.6823 7.02C33.2423 6.68667 33.8957 6.52 34.6423 6.52C34.7357 6.52 34.8357 6.52 34.9423 6.52C35.0623 6.52 35.1957 6.53333 35.3423 6.56V10.02C34.8623 9.78 34.3423 9.66 33.7823 9.66C32.9423 9.66 32.309 9.91333 31.8823 10.42C31.469 10.9133 31.2623 11.64 31.2623 12.6V17H27.6423V6.74ZM40.4164 11.82C40.4164 12.1533 40.4764 12.4667 40.5964 12.76C40.7164 13.04 40.8764 13.2867 41.0764 13.5C41.2897 13.7133 41.5364 13.88 41.8164 14C42.1097 14.12 42.4231 14.18 42.7564 14.18C43.0764 14.18 43.3764 14.12 43.6564 14C43.9497 13.88 44.1964 13.7133 44.3964 13.5C44.6097 13.2867 44.7764 13.04 44.8964 12.76C45.0297 12.4667 45.0964 12.16 45.0964 11.84C45.0964 11.5067 45.0297 11.2 44.8964 10.92C44.7764 10.64 44.6097 10.3933 44.3964 10.18C44.1831 9.96667 43.9297 9.8 43.6364 9.68C43.3564 9.56 43.0631 9.5 42.7564 9.5C42.4364 9.5 42.1364 9.56667 41.8564 9.7C41.5764 9.82 41.3297 9.98667 41.1164 10.2C40.9031 10.4 40.7297 10.64 40.5964 10.92C40.4764 11.2 40.4164 11.5 40.4164 11.82ZM48.5364 6.74V16.3C48.5364 16.8733 48.5031 17.3867 48.4364 17.84C48.3697 18.2933 48.2764 18.6933 48.1564 19.04C47.9964 19.48 47.7431 19.8867 47.3964 20.26C47.0631 20.6467 46.6564 20.98 46.1764 21.26C45.6964 21.54 45.1497 21.76 44.5364 21.92C43.9364 22.08 43.2831 22.16 42.5764 22.16C41.7764 22.16 41.0431 22.06 40.3764 21.86C39.7097 21.66 39.1231 21.38 38.6164 21.02C38.1231 20.6733 37.7164 20.26 37.3964 19.78C37.0764 19.3133 36.8631 18.8 36.7564 18.24H40.8364C41.0897 18.92 41.6631 19.26 42.5564 19.26C43.3164 19.26 43.8964 19.0467 44.2964 18.62C44.7097 18.1933 44.9164 17.6 44.9164 16.84V15.86C44.6497 16.1133 44.3897 16.3267 44.1364 16.5C43.8964 16.66 43.6497 16.7933 43.3964 16.9C43.1431 17.0067 42.8764 17.08 42.5964 17.12C42.3164 17.1733 42.0097 17.2 41.6764 17.2C40.9431 17.2 40.2697 17.0733 39.6564 16.82C39.0431 16.5667 38.5097 16.2133 38.0564 15.76C37.6164 15.3067 37.2697 14.7667 37.0164 14.14C36.7764 13.5 36.6564 12.7933 36.6564 12.02C36.6564 11.2333 36.7897 10.5067 37.0564 9.84C37.3231 9.16 37.6831 8.57333 38.1364 8.08C38.6031 7.57333 39.1497 7.18 39.7764 6.9C40.4164 6.60667 41.1097 6.46 41.8564 6.46C43.0697 6.46 44.0897 6.91333 44.9164 7.82V6.74H48.5364ZM54.5766 11.84C54.5766 12.1733 54.6366 12.4867 54.7566 12.78C54.8766 13.06 55.0366 13.3067 55.2366 13.52C55.4499 13.7333 55.6966 13.9 55.9766 14.02C56.2699 14.14 56.5832 14.2 56.9166 14.2C57.2366 14.2 57.5366 14.14 57.8166 14.02C58.1099 13.9 58.3566 13.7333 58.5566 13.52C58.7699 13.3067 58.9366 13.06 59.0566 12.78C59.1899 12.5 59.2566 12.2 59.2566 11.88C59.2566 11.56 59.1899 11.26 59.0566 10.98C58.9366 10.6867 58.7699 10.4333 58.5566 10.22C58.3566 10.0067 58.1099 9.84 57.8166 9.72C57.5366 9.6 57.2366 9.54 56.9166 9.54C56.5832 9.54 56.2699 9.6 55.9766 9.72C55.6966 9.84 55.4499 10.0067 55.2366 10.22C55.0366 10.4333 54.8766 10.68 54.7566 10.96C54.6366 11.2267 54.5766 11.52 54.5766 11.84ZM59.1366 6.74H62.7766V17H59.1366V15.86C58.3632 16.8333 57.3166 17.32 55.9966 17.32C55.2499 17.32 54.5632 17.1867 53.9366 16.92C53.3099 16.64 52.7632 16.2533 52.2966 15.76C51.8299 15.2667 51.4632 14.6867 51.1966 14.02C50.9432 13.3533 50.8166 12.6267 50.8166 11.84C50.8166 11.1067 50.9432 10.4133 51.1966 9.76C51.4499 9.09333 51.8032 8.51333 52.2566 8.02C52.7099 7.52667 53.2499 7.14 53.8766 6.86C54.5032 6.56667 55.1966 6.42 55.9566 6.42C57.2366 6.42 58.2966 6.86667 59.1366 7.76V6.74ZM68.86 0.399999V10.44L72.66 6.74H77.62L72.48 11.48L77.92 17H72.84L68.86 12.82V17H65.24V0.399999H68.86ZM81.9398 11.84C81.9398 12.1733 81.9998 12.4867 82.1198 12.78C82.2398 13.06 82.3998 13.3067 82.5998 13.52C82.8132 13.7333 83.0598 13.9 83.3398 14.02C83.6332 14.14 83.9465 14.2 84.2798 14.2C84.5998 14.2 84.8998 14.14 85.1798 14.02C85.4732 13.9 85.7198 13.7333 85.9198 13.52C86.1332 13.3067 86.2998 13.06 86.4198 12.78C86.5532 12.5 86.6198 12.2 86.6198 11.88C86.6198 11.56 86.5532 11.26 86.4198 10.98C86.2998 10.6867 86.1332 10.4333 85.9198 10.22C85.7198 10.0067 85.4732 9.84 85.1798 9.72C84.8998 9.6 84.5998 9.54 84.2798 9.54C83.9465 9.54 83.6332 9.6 83.3398 9.72C83.0598 9.84 82.8132 10.0067 82.5998 10.22C82.3998 10.4333 82.2398 10.68 82.1198 10.96C81.9998 11.2267 81.9398 11.52 81.9398 11.84ZM86.4998 6.74H90.1398V17H86.4998V15.86C85.7265 16.8333 84.6798 17.32 83.3598 17.32C82.6132 17.32 81.9265 17.1867 81.2998 16.92C80.6732 16.64 80.1265 16.2533 79.6598 15.76C79.1932 15.2667 78.8265 14.6867 78.5598 14.02C78.3065 13.3533 78.1798 12.6267 78.1798 11.84C78.1798 11.1067 78.3065 10.4133 78.5598 9.76C78.8132 9.09333 79.1665 8.51333 79.6198 8.02C80.0732 7.52667 80.6132 7.14 81.2398 6.86C81.8665 6.56667 82.5598 6.42 83.3198 6.42C84.5998 6.42 85.6598 6.86667 86.4998 7.76V6.74ZM92.6033 6.74H96.2233V8.42C96.6099 7.80667 97.0833 7.34 97.6433 7.02C98.2033 6.68667 98.8566 6.52 99.6033 6.52C99.6966 6.52 99.7966 6.52 99.9033 6.52C100.023 6.52 100.157 6.53333 100.303 6.56V10.02C99.8233 9.78 99.3033 9.66 98.7433 9.66C97.9033 9.66 97.2699 9.91333 96.8433 10.42C96.4299 10.9133 96.2233 11.64 96.2233 12.6V17H92.6033V6.74ZM105.377 11.82C105.377 12.1533 105.437 12.4667 105.557 12.76C105.677 13.04 105.837 13.2867 106.037 13.5C106.251 13.7133 106.497 13.88 106.777 14C107.071 14.12 107.384 14.18 107.717 14.18C108.037 14.18 108.337 14.12 108.617 14C108.911 13.88 109.157 13.7133 109.357 13.5C109.571 13.2867 109.737 13.04 109.857 12.76C109.991 12.4667 110.057 12.16 110.057 11.84C110.057 11.5067 109.991 11.2 109.857 10.92C109.737 10.64 109.571 10.3933 109.357 10.18C109.144 9.96667 108.891 9.8 108.597 9.68C108.317 9.56 108.024 9.5 107.717 9.5C107.397 9.5 107.097 9.56667 106.817 9.7C106.537 9.82 106.291 9.98667 106.077 10.2C105.864 10.4 105.691 10.64 105.557 10.92C105.437 11.2 105.377 11.5 105.377 11.82ZM113.497 6.74V16.3C113.497 16.8733 113.464 17.3867 113.397 17.84C113.331 18.2933 113.237 18.6933 113.117 19.04C112.957 19.48 112.704 19.8867 112.357 20.26C112.024 20.6467 111.617 20.98 111.137 21.26C110.657 21.54 110.111 21.76 109.497 21.92C108.897 22.08 108.244 22.16 107.537 22.16C106.737 22.16 106.004 22.06 105.337 21.86C104.671 21.66 104.084 21.38 103.577 21.02C103.084 20.6733 102.677 20.26 102.357 19.78C102.037 19.3133 101.824 18.8 101.717 18.24H105.797C106.051 18.92 106.624 19.26 107.517 19.26C108.277 19.26 108.857 19.0467 109.257 18.62C109.671 18.1933 109.877 17.6 109.877 16.84V15.86C109.611 16.1133 109.351 16.3267 109.097 16.5C108.857 16.66 108.611 16.7933 108.357 16.9C108.104 17.0067 107.837 17.08 107.557 17.12C107.277 17.1733 106.971 17.2 106.637 17.2C105.904 17.2 105.231 17.0733 104.617 16.82C104.004 16.5667 103.471 16.2133 103.017 15.76C102.577 15.3067 102.231 14.7667 101.977 14.14C101.737 13.5 101.617 12.7933 101.617 12.02C101.617 11.2333 101.751 10.5067 102.017 9.84C102.284 9.16 102.644 8.57333 103.097 8.08C103.564 7.57333 104.111 7.18 104.737 6.9C105.377 6.60667 106.071 6.46 106.817 6.46C108.031 6.46 109.051 6.91333 109.877 7.82V6.74H113.497ZM119.538 11.84C119.538 12.1733 119.598 12.4867 119.718 12.78C119.838 13.06 119.998 13.3067 120.198 13.52C120.411 13.7333 120.658 13.9 120.938 14.02C121.231 14.14 121.544 14.2 121.878 14.2C122.198 14.2 122.498 14.14 122.778 14.02C123.071 13.9 123.318 13.7333 123.518 13.52C123.731 13.3067 123.898 13.06 124.018 12.78C124.151 12.5 124.218 12.2 124.218 11.88C124.218 11.56 124.151 11.26 124.018 10.98C123.898 10.6867 123.731 10.4333 123.518 10.22C123.318 10.0067 123.071 9.84 122.778 9.72C122.498 9.6 122.198 9.54 121.878 9.54C121.544 9.54 121.231 9.6 120.938 9.72C120.658 9.84 120.411 10.0067 120.198 10.22C119.998 10.4333 119.838 10.68 119.718 10.96C119.598 11.2267 119.538 11.52 119.538 11.84ZM124.098 6.74H127.738V17H124.098V15.86C123.324 16.8333 122.278 17.32 120.958 17.32C120.211 17.32 119.524 17.1867 118.898 16.92C118.271 16.64 117.724 16.2533 117.258 15.76C116.791 15.2667 116.424 14.6867 116.158 14.02C115.904 13.3533 115.778 12.6267 115.778 11.84C115.778 11.1067 115.904 10.4133 116.158 9.76C116.411 9.09333 116.764 8.51333 117.218 8.02C117.671 7.52667 118.211 7.14 118.838 6.86C119.464 6.56667 120.158 6.42 120.918 6.42C122.198 6.42 123.258 6.86667 124.098 7.76V6.74Z" fill="#145389"/>
</svg>
