<svg width="32" height="32" viewBox="0 0 32 32" fill="none" xmlns="http://www.w3.org/2000/svg">
<path d="M0 6C0 2.68629 2.68629 0 6 0H26C29.3137 0 32 2.68629 32 6V26C32 29.3137 29.3137 32 26 32H6C2.68629 32 0 29.3137 0 26V6Z" fill="#FFFAEB"/>
<path d="M11.8333 13.0833H16M11.8333 16H18.5M11.8333 21V22.9463C11.8333 23.3903 11.8333 23.6123 11.9244 23.7263C12.0035 23.8255 12.1236 23.8832 12.2504 23.8831C12.3964 23.8829 12.5697 23.7442 12.9165 23.4668L14.9043 21.8765C15.3104 21.5517 15.5135 21.3892 15.7396 21.2737C15.9402 21.1712 16.1537 21.0963 16.3743 21.051C16.6231 21 16.8831 21 17.4031 21H19.5C20.9001 21 21.6002 21 22.135 20.7275C22.6054 20.4878 22.9878 20.1054 23.2275 19.635C23.5 19.1002 23.5 18.4001 23.5 17V12.5C23.5 11.0999 23.5 10.3998 23.2275 9.86502C22.9878 9.39462 22.6054 9.01217 22.135 8.77248C21.6002 8.5 20.9001 8.5 19.5 8.5H12.5C11.0999 8.5 10.3998 8.5 9.86502 8.77248C9.39462 9.01217 9.01217 9.39462 8.77248 9.86502C8.5 10.3998 8.5 11.0999 8.5 12.5V17.6667C8.5 18.4416 8.5 18.8291 8.58519 19.147C8.81635 20.0098 9.49022 20.6836 10.353 20.9148C10.6709 21 11.0584 21 11.8333 21Z" stroke="#F79009" stroke-width="1.66667" stroke-linecap="round" stroke-linejoin="round"/>
</svg>
